<svg width="20" height="20" viewBox="0 0 20 20" fill="none" xmlns="http://www.w3.org/2000/svg">
<path d="M10.0001 0L7.3334 2.66667H9.3334V4.72005C7.07297 5.04452 5.3334 6.98314 5.3334 9.33333C5.3334 11.9107 7.42273 14 10.0001 14C12.5774 14 14.6667 11.9107 14.6667 9.33333C14.6667 6.98314 12.9272 5.04452 10.6667 4.72005V2.66667H12.6667L10.0001 0ZM8.43756 6.91536H11.5639V7.84635H9.35944L9.2709 8.9375H9.3334C9.5154 8.64483 9.84749 8.45573 10.3295 8.45573C11.2215 8.45573 11.8594 9.11658 11.8594 10.0312C11.8588 11.0479 11.1106 11.7409 9.97793 11.7409C8.88726 11.7409 8.15866 11.0988 8.14199 10.2461H9.22532C9.28066 10.5914 9.59304 10.819 9.98704 10.819C10.423 10.819 10.7331 10.5205 10.7331 10.0612C10.7331 9.59253 10.4204 9.27995 9.98444 9.27995C9.65244 9.27995 9.41762 9.42933 9.26829 9.66667H8.21621L8.43756 6.91536ZM2.65631 12.6576C2.47973 12.6603 2.31145 12.733 2.18842 12.8597C2.06539 12.9864 1.99764 13.1567 2.00006 13.3333V16C2.00006 17.0966 2.90342 18 4.00006 18H16.0001C17.0967 18 18.0001 17.0966 18.0001 16V13.3333C18.0013 13.245 17.985 13.1573 17.952 13.0753C17.9191 12.9933 17.8702 12.9187 17.8082 12.8558C17.7461 12.7929 17.6722 12.7429 17.5907 12.7088C17.5092 12.6747 17.4217 12.6572 17.3334 12.6572C17.245 12.6572 17.1576 12.6747 17.0761 12.7088C16.9946 12.7429 16.9207 12.7929 16.8586 12.8558C16.7966 12.9187 16.7477 12.9933 16.7147 13.0753C16.6818 13.1573 16.6655 13.245 16.6667 13.3333V16C16.6667 16.3767 16.3767 16.6667 16.0001 16.6667H4.00006C3.62338 16.6667 3.3334 16.3767 3.3334 16V13.3333C3.33462 13.2441 3.31793 13.1556 3.28432 13.073C3.25071 12.9904 3.20086 12.9153 3.13772 12.8523C3.07459 12.7893 2.99945 12.7396 2.91676 12.7061C2.83407 12.6727 2.7455 12.6562 2.65631 12.6576Z" fill="#0D0F2B"/>
</svg>
