<svg width="20" height="20" viewBox="0 0 20 20" fill="none" xmlns="http://www.w3.org/2000/svg">
<path d="M4.66699 2.66666C3.57035 2.66666 2.66699 3.57002 2.66699 4.66666V15.3333C2.66699 16.438 3.56233 17.3333 4.66699 17.3333H16.0003C16.737 17.3333 17.3337 16.7367 17.3337 16V6.66666C17.3337 5.93 16.737 5.33333 16.0003 5.33333H10.667H4.66699C4.29031 5.33333 4.00033 5.04335 4.00033 4.66666C4.00033 4.28998 4.29031 4 4.66699 4H14.667C14.7553 4.00124 14.843 3.98492 14.925 3.95198C15.007 3.91904 15.0816 3.87013 15.1445 3.8081C15.2074 3.74607 15.2574 3.67216 15.2915 3.59065C15.3256 3.50915 15.3432 3.42168 15.3432 3.33333C15.3432 3.24498 15.3256 3.15751 15.2915 3.076C15.2574 2.9945 15.2074 2.92059 15.1445 2.85856C15.0816 2.79653 15.007 2.74762 14.925 2.71468C14.843 2.68173 14.7553 2.66541 14.667 2.66666H4.66699ZM14.667 10C15.4037 10 16.0003 10.5967 16.0003 11.3333C16.0003 12.07 15.4037 12.6667 14.667 12.6667C13.9303 12.6667 13.3337 12.07 13.3337 11.3333C13.3337 10.5967 13.9303 10 14.667 10Z" fill="#0D0F2B"/>
</svg>
