<svg width="20" height="20" viewBox="0 0 20 20" fill="none" xmlns="http://www.w3.org/2000/svg">
<path d="M7.33366 1.33334C6.59699 1.33334 6.00033 1.93001 6.00033 2.66668V13.3333C6.00033 14.07 6.59699 14.6667 7.33366 14.6667H16.0003C16.737 14.6667 17.3337 14.07 17.3337 13.3333V5.66668C17.3337 5.49001 17.2637 5.32066 17.1383 5.19532L13.4717 1.52866C13.3463 1.40332 13.177 1.33334 13.0003 1.33334H7.33366ZM12.667 2.60287L16.0641 6.00001H13.3337C12.9657 6.00001 12.667 5.70134 12.667 5.33334V2.60287ZM4.00033 4.66668C3.26366 4.66668 2.66699 5.26334 2.66699 6.00001V16.6667C2.66699 17.4033 3.26366 18 4.00033 18H12.667C13.4037 18 14.0003 17.4033 14.0003 16.6667V16H7.33366C5.86299 16 4.66699 14.804 4.66699 13.3333V4.66668H4.00033Z" fill="#0D0F2B"/>
</svg>
