<svg width="20" height="20" viewBox="0 0 20 20" fill="none" xmlns="http://www.w3.org/2000/svg">
<path d="M4.66634 2C3.93763 2 3.33301 2.60462 3.33301 3.33333V16.6667C3.33301 17.3954 3.93763 18 4.66634 18H15.333C16.0617 18 16.6663 17.3954 16.6663 16.6667V3.33333C16.6663 2.60462 16.0617 2 15.333 2H4.66634ZM4.66634 3.33333H7.99967V6.66667H4.66634V3.33333ZM9.33301 3.33333H15.333V6.66667H9.33301V3.33333ZM9.33301 8H15.333V10.6667H9.33301V8ZM4.66634 12H7.99967V16.6667H4.66634V12ZM9.33301 12H11.9997V16.6667H9.33301V12Z" fill="#0D0F2B"/>
</svg>
