<svg width="20" height="20" viewBox="0 0 20 20" fill="none" xmlns="http://www.w3.org/2000/svg">
<g clip-path="url(#clip0_56_523)">
<path d="M2.65631 12.6575C2.47973 12.6603 2.31145 12.733 2.18842 12.8597C2.06539 12.9864 1.99764 13.1567 2.00006 13.3333V16C2.00006 17.0966 2.90342 18 4.00006 18H16.0001C17.0967 18 18.0001 17.0966 18.0001 16V13.3333C18.0013 13.245 17.985 13.1573 17.952 13.0753C17.9191 12.9933 17.8702 12.9187 17.8082 12.8558C17.7461 12.7929 17.6722 12.7429 17.5907 12.7088C17.5092 12.6747 17.4217 12.6572 17.3334 12.6572C17.245 12.6572 17.1576 12.6747 17.0761 12.7088C16.9946 12.7429 16.9207 12.7929 16.8586 12.8558C16.7966 12.9187 16.7477 12.9933 16.7147 13.0753C16.6818 13.1573 16.6655 13.245 16.6667 13.3333V16C16.6667 16.3767 16.3767 16.6667 16.0001 16.6667H4.00006C3.62338 16.6667 3.3334 16.3767 3.3334 16V13.3333C3.33462 13.2441 3.31793 13.1556 3.28432 13.073C3.25071 12.9903 3.20086 12.9153 3.13772 12.8523C3.07459 12.7893 2.99945 12.7396 2.91676 12.7061C2.83407 12.6727 2.7455 12.6562 2.65631 12.6575Z" fill="#0D0F2B"/>
<path fill-rule="evenodd" clip-rule="evenodd" d="M9.99935 14L12.666 11.3333L10.666 11.3333L10.666 9.27995C12.9264 8.95548 14.666 7.01686 14.666 4.66667C14.666 2.08933 12.5767 -1.82655e-07 9.99935 -4.07973e-07C7.42202 -6.33291e-07 5.33268 2.08933 5.33268 4.66667C5.33268 7.01686 7.07226 8.95548 9.33268 9.27995L9.33268 11.3333L7.33268 11.3333L9.99935 14ZM8.43555 7.08463L11.5618 7.08463L11.7832 4.33333L10.7311 4.33333C10.5818 4.57067 10.347 4.72005 10.015 4.72005C9.57898 4.72005 9.26628 4.40747 9.26628 3.9388C9.26628 3.47947 9.57637 3.18099 10.0124 3.18099C10.4064 3.18099 10.7188 3.40857 10.7741 3.75391L11.8574 3.75391C11.8408 2.90124 11.1122 2.25911 10.0215 2.25911C8.88882 2.25911 8.14064 2.95208 8.13997 3.96875C8.13997 4.88342 8.77792 5.54427 9.66992 5.54427C10.1519 5.54427 10.484 5.35517 10.666 5.0625L10.7285 5.0625L10.64 6.15365L8.43555 6.15364L8.43555 7.08463Z" fill="#0D0F2B"/>
</g>
<defs>
<clipPath id="clip0_56_523">
<rect width="20" height="20" fill="white"/>
</clipPath>
</defs>
</svg>
