<svg width="20" height="14" viewBox="0 0 20 14" fill="none" xmlns="http://www.w3.org/2000/svg">
<path d="M8.23008 1.15734C8.08475 0.753342 7.93808 0.346009 7.93541 0.340676C7.86541 0.184009 7.70341 0.0853421 7.53275 0.102675C7.42475 0.111342 4.86941 0.331342 3.23208 1.64801C2.37608 2.43868 0.666748 7.06134 0.666748 11.058C0.666748 11.1287 0.684748 11.1973 0.720081 11.2587C1.90075 13.332 5.11941 13.8747 5.85275 13.898C5.85741 13.8987 5.86141 13.8987 5.86541 13.8987C5.99475 13.8987 6.11608 13.8367 6.19341 13.732L6.98675 12.6573C5.67608 12.458 5.43941 12.198 5.38408 12.1573C5.08808 11.9393 4.86941 11.634 5.13475 11.2487C5.33875 10.9493 5.76675 10.8507 6.09475 11.0193C6.43075 11.176 7.33008 11.68 10.0001 11.6667C12.6514 11.6587 13.8154 11.1033 13.8321 11.0913C14.2774 10.8907 14.6247 10.9733 14.8414 11.2707C15.0994 11.6753 14.9154 11.9493 14.6207 12.1667C14.5654 12.2073 14.4314 12.3213 13.0234 12.6547L13.8067 13.7313C13.8834 13.8367 14.0054 13.898 14.1347 13.898C14.1394 13.898 14.1434 13.898 14.1474 13.8973C14.8814 13.874 18.1001 13.3313 19.2801 11.258C19.3154 11.1967 19.3334 11.128 19.3334 11.0573C19.3334 7.06134 17.6241 2.43868 16.7467 1.63068C15.1307 0.332009 12.5754 0.112009 12.4674 0.102675C12.2967 0.0880088 12.1347 0.184676 12.0647 0.340676C12.0621 0.346009 11.9194 0.760009 11.7814 1.15934C11.7814 1.15934 10.6941 1.00001 10.0001 1.00001C9.30608 1.00001 8.23008 1.15734 8.23008 1.15734ZM7.33341 9.66667C6.59675 9.66667 6.00008 8.77801 6.00008 7.68068C6.00008 6.58334 6.59675 5.69467 7.33341 5.69467C8.07275 5.58468 8.65075 6.58334 8.66675 7.68068C8.66675 8.77801 8.07008 9.66667 7.33341 9.66667ZM12.6667 9.66667C11.9301 9.66667 11.3334 8.77201 11.3334 7.66868C11.3334 6.56534 11.9301 5.67067 12.6667 5.67067C13.4034 5.67067 14.0001 6.56534 14.0001 7.66868C14.0001 8.77201 13.4034 9.66667 12.6667 9.66667Z" fill="#0D0F2B"/>
</svg>
