<svg width="26" height="23" viewBox="0 0 26 23" fill="none" xmlns="http://www.w3.org/2000/svg">
<path d="M7.37493 0.471153C5.38274 0.471153 3.57084 1.16076 2.29079 2.41827C1.01074 3.67578 0.307617 5.47416 0.307617 7.53846C0.307617 11.0316 2.44854 13.6367 4.88694 15.8317C7.32535 18.0267 10.1694 19.9694 12.0985 22.25C12.3103 22.5159 12.6258 22.6737 12.9639 22.6827H13.036C13.374 22.6737 13.6895 22.5159 13.9014 22.25C15.8305 19.9694 18.6745 18.0267 21.1129 15.8317C23.5513 13.6367 25.6922 11.0316 25.6922 7.53846C25.6922 5.47416 24.9531 3.67578 23.673 2.41827C22.393 1.16076 20.6171 0.471153 18.6249 0.471153C16.6508 0.471153 15.0327 1.54838 13.9014 2.52644C13.347 3.00421 13.3199 3.13492 12.9999 3.5C12.6844 3.13492 12.6529 3.00421 12.0985 2.52644C10.9717 1.54838 9.34908 0.471153 7.37493 0.471153ZM7.37493 2.77885C8.46116 2.77885 9.6736 3.50451 10.5841 4.29327C11.4945 5.08203 12.0624 5.84375 12.0624 5.84375C12.2788 6.14573 12.6303 6.32602 12.9999 6.32602C13.3695 6.32602 13.7211 6.14573 13.9374 5.84375C13.9374 5.84375 14.5008 5.08203 15.4158 4.29327C16.3308 3.50451 17.5342 2.77885 18.6249 2.77885C20.1078 2.77885 21.2752 3.28365 22.0865 4.07692C22.8978 4.87019 23.3845 5.99249 23.3845 7.53846C23.3845 10.0941 21.8386 12.0502 19.5624 14.101C17.5477 15.9174 15.0868 17.7788 12.9999 19.9784C10.9086 17.7698 8.45666 15.9174 6.43743 14.101C4.16128 12.0502 2.61531 10.0941 2.61531 7.53846C2.61531 5.99249 3.10209 4.87019 3.91339 4.07692C4.72468 3.28365 5.88755 2.77885 7.37493 2.77885Z" fill="#FF507D"/>
</svg>
