<svg width="12" height="12" viewBox="0 0 12 12" fill="none" xmlns="http://www.w3.org/2000/svg">
<path d="M10.9902 0.495081C10.9716 0.49567 10.953 0.4973 10.9346 0.499964H8C7.93374 0.499027 7.86796 0.511268 7.80648 0.535975C7.74499 0.560682 7.68903 0.597362 7.64185 0.643884C7.59466 0.690406 7.5572 0.745843 7.53162 0.806971C7.50605 0.8681 7.49288 0.933702 7.49288 0.999964C7.49288 1.06623 7.50605 1.13183 7.53162 1.19296C7.5572 1.25409 7.59466 1.30952 7.64185 1.35604C7.68903 1.40257 7.74499 1.43925 7.80648 1.46395C7.86796 1.48866 7.93374 1.5009 8 1.49996H9.79297L4.64648 6.64645C4.5985 6.69252 4.56019 6.74771 4.53379 6.80877C4.5074 6.86983 4.49346 6.93555 4.49278 7.00207C4.4921 7.06859 4.5047 7.13458 4.52985 7.19617C4.55499 7.25776 4.59218 7.31371 4.63921 7.36075C4.68625 7.40779 4.74221 7.44497 4.8038 7.47011C4.86538 7.49526 4.93137 7.50786 4.99789 7.50719C5.06441 7.50651 5.13013 7.49256 5.19119 7.46617C5.25226 7.43978 5.30744 7.40147 5.35352 7.35348L10.5 2.207V3.99996C10.4991 4.06622 10.5113 4.132 10.536 4.19349C10.5607 4.25497 10.5974 4.31093 10.6439 4.35812C10.6904 4.4053 10.7459 4.44277 10.807 4.46834C10.8681 4.49392 10.9337 4.50709 11 4.50709C11.0663 4.50709 11.1319 4.49392 11.193 4.46834C11.2541 4.44277 11.3096 4.4053 11.3561 4.35812C11.4026 4.31093 11.4393 4.25497 11.464 4.19349C11.4887 4.132 11.5009 4.06622 11.5 3.99996V1.06344C11.51 0.991453 11.5041 0.918161 11.4828 0.848666C11.4616 0.779171 11.4254 0.715144 11.3769 0.661044C11.3284 0.606943 11.2687 0.56407 11.2019 0.535407C11.1351 0.506745 11.0629 0.492984 10.9902 0.495081ZM1 2.49996C0.453469 2.49996 0 2.95343 0 3.49996V11C0 11.5465 0.453469 12 1 12H8.5C9.04653 12 9.5 11.5465 9.5 11V5.99996V4.7109L8.5 5.7109V6.99996V11H1V3.49996H5H6H6.28906L7.28906 2.49996H6H5H1Z" fill="#FF507D"/>
</svg>
