<svg width="60" height="67" viewBox="0 0 60 67" fill="none" xmlns="http://www.w3.org/2000/svg">
<path d="M30.0003 0.333334C19.7221 0.333334 11.3337 8.72178 11.3337 19V24.3333H6.00033C3.05366 24.3333 0.666992 26.72 0.666992 29.6667V61.6667C0.666992 64.6133 3.05366 67 6.00033 67H54.0003C56.947 67 59.3337 64.6133 59.3337 61.6667V29.6667C59.3337 26.72 56.947 24.3333 54.0003 24.3333H48.667V19C48.667 9.05755 40.7645 1.04951 30.9482 0.526042C30.6467 0.404562 30.3254 0.339252 30.0003 0.333334ZM30.0003 5.66667C37.3968 5.66667 43.3337 11.6036 43.3337 19V24.3333H16.667V19C16.667 11.6036 22.6039 5.66667 30.0003 5.66667Z" fill="#FF507D"/>
</svg>
