<svg width="20" height="12" viewBox="0 0 20 12" fill="none" xmlns="http://www.w3.org/2000/svg">
<path d="M5.66667 0.666656C4.92251 0.666656 4.18564 0.813229 3.49813 1.09801C2.81062 1.38278 2.18593 1.80019 1.65973 2.32638C1.13353 2.85258 0.716126 3.47727 0.431349 4.16478C0.146573 4.85229 0 5.58917 0 6.33332C0 7.07748 0.146573 7.81435 0.431349 8.50186C0.716126 9.18937 1.13353 9.81406 1.65973 10.3403C2.18593 10.8665 2.81062 11.2839 3.49813 11.5686C4.18564 11.8534 4.92251 12 5.66667 12C6.41082 12 7.1477 11.8534 7.83521 11.5686C8.52272 11.2839 9.14741 10.8665 9.6736 10.3403C10.1998 9.81406 10.6172 9.18937 10.902 8.50186C11.1868 7.81435 11.3333 7.07748 11.3333 6.33332C11.3333 5.58917 11.1868 4.85229 10.902 4.16478C10.6172 3.47727 10.1998 2.85258 9.6736 2.32638C9.14741 1.80019 8.52272 1.38278 7.83521 1.09801C7.1477 0.813229 6.41082 0.666656 5.66667 0.666656ZM14.6667 1.33332C14.3165 1.33332 13.9697 1.46265 13.6462 1.71393C13.3226 1.9652 13.0287 2.3335 12.781 2.79779C12.5334 3.26208 12.337 3.81328 12.203 4.41991C12.069 5.02653 12 5.67671 12 6.33332C12 6.98993 12.069 7.64011 12.203 8.24674C12.337 8.85337 12.5334 9.40456 12.781 9.86886C13.0287 10.3331 13.3226 10.7014 13.6462 10.9527C13.9697 11.204 14.3165 11.3333 14.6667 11.3333C15.0169 11.3333 15.3636 11.204 15.6872 10.9527C16.0107 10.7014 16.3047 10.3331 16.5523 9.86886C16.7999 9.40456 16.9963 8.85337 17.1303 8.24674C17.2644 7.64011 17.3333 6.98993 17.3333 6.33332C17.3333 5.67671 17.2644 5.02653 17.1303 4.41991C16.9963 3.81328 16.7999 3.26208 16.5523 2.79779C16.3047 2.3335 16.0107 1.9652 15.6872 1.71393C15.3636 1.46265 15.0169 1.33332 14.6667 1.33332ZM19 1.99999C18.7348 1.99999 18.4804 2.45654 18.2929 3.26919C18.1054 4.08185 18 5.18405 18 6.33332C18 7.48259 18.1054 8.58479 18.2929 9.39745C18.4804 10.2101 18.7348 10.6667 19 10.6667C19.2652 10.6667 19.5196 10.2101 19.7071 9.39745C19.8946 8.58479 20 7.48259 20 6.33332C20 5.18405 19.8946 4.08185 19.7071 3.26919C19.5196 2.45654 19.2652 1.99999 19 1.99999Z" fill="#0D0F2B"/>
</svg>
