<svg width="16" height="16" viewBox="0 0 16 16" fill="none" xmlns="http://www.w3.org/2000/svg">
<path d="M14.0001 0.666656H2.00008C1.26341 0.666656 0.666748 1.26332 0.666748 1.99999V14C0.666748 14.7367 1.26341 15.3333 2.00008 15.3333H14.0001C14.7367 15.3333 15.3334 14.7367 15.3334 14V1.99999C15.3334 1.26332 14.7361 0.666656 14.0001 0.666656ZM13.1261 6.98266C13.0394 6.99066 12.9521 6.99599 12.8641 6.99599C11.8674 6.99599 10.9914 6.48399 10.4814 5.70866C10.4814 7.74132 10.4814 10.0547 10.4814 10.0933C10.4814 11.8833 9.03008 13.334 7.24075 13.334C5.45142 13.3333 4.00008 11.882 4.00008 10.0927C4.00008 8.30266 5.45142 6.85199 7.24075 6.85199C7.30875 6.85199 7.37475 6.85799 7.44075 6.86199V8.45932C7.37408 8.45132 7.30941 8.43932 7.24075 8.43932C6.32741 8.43932 5.58675 9.17999 5.58675 10.0933C5.58675 11.0067 6.32675 11.7473 7.24075 11.7473C8.15475 11.7473 8.96141 11.0273 8.96141 10.114C8.96141 10.0773 8.97742 2.66732 8.97742 2.66732H10.5034C10.6467 4.03199 11.7487 5.10932 13.1261 5.20799V6.98266Z" fill="#0D0F2B"/>
</svg>
