<svg width="18" height="16" viewBox="0 0 18 16" fill="none" xmlns="http://www.w3.org/2000/svg">
<path d="M17.6668 2.62467C17.0288 2.908 16.3434 3.09867 15.6241 3.18467C16.3588 2.74467 16.9221 2.048 17.1874 1.21734C16.5008 1.62467 15.7394 1.92067 14.9288 2.08067C14.2801 1.38934 13.3561 0.957336 12.3334 0.957336C10.3694 0.957336 8.77743 2.55 8.77743 4.51334C8.77743 4.792 8.80943 5.064 8.86943 5.32334C5.9141 5.17534 3.2941 3.75934 1.53943 1.60734C1.2341 2.13267 1.05876 2.74334 1.05876 3.396C1.05876 4.62934 1.6861 5.718 2.6401 6.35534C2.05743 6.33667 1.50876 6.17667 1.02943 5.91067C1.02943 5.926 1.02943 5.94 1.02943 5.95534C1.02943 7.67867 2.25476 9.116 3.8821 9.442C3.5841 9.52334 3.26943 9.56667 2.94476 9.56667C2.7161 9.56667 2.49276 9.544 2.2761 9.50334C2.72876 10.916 4.0421 11.9447 5.5981 11.9733C4.38143 12.9273 2.8481 13.496 1.18143 13.496C0.894764 13.496 0.61143 13.4793 0.332764 13.446C1.90676 14.4547 3.77543 15.0433 5.7841 15.0433C12.3254 15.0433 15.9014 9.62467 15.9014 4.92534C15.9014 4.77134 15.8981 4.618 15.8914 4.46534C16.5868 3.96334 17.1901 3.33734 17.6668 2.62467Z" fill="#0D0F2B"/>
</svg>
