<svg width="24" height="15" viewBox="0 0 24 15" fill="none" xmlns="http://www.w3.org/2000/svg">
<path d="M4.91511 2.9005C8.82801 -0.930557 15.1721 -0.930557 19.085 2.9005L19.5559 3.36157C19.7515 3.55312 19.7515 3.86369 19.5559 4.05524L17.945 5.63248C17.8471 5.72826 17.6885 5.72826 17.5907 5.63248L16.9427 4.99799C14.2129 2.32535 9.78715 2.32535 7.05742 4.99799L6.36341 5.67748C6.26559 5.77326 6.10699 5.77326 6.00917 5.67748L4.39823 4.10024C4.20259 3.90869 4.20259 3.59812 4.39823 3.40657L4.91511 2.9005ZM22.4165 6.1624L23.8503 7.56615C24.0459 7.7577 24.0459 8.06827 23.8503 8.25982L17.3855 14.5895C17.1898 14.7811 16.8726 14.7811 16.677 14.5895C16.677 14.5895 16.677 14.5895 16.677 14.5895L12.0886 10.0971C12.0397 10.0493 11.9604 10.0493 11.9115 10.0971C11.9115 10.0971 11.9115 10.0971 11.9115 10.0971L7.32328 14.5895C7.12763 14.7811 6.81043 14.7811 6.61478 14.5895C6.61478 14.5895 6.61478 14.5895 6.61478 14.5895L0.149785 8.25974C-0.0458594 8.06819 -0.0458594 7.75762 0.149785 7.56606L1.58352 6.16232C1.77917 5.97076 2.09637 5.97076 2.29202 6.16232L6.88041 10.6547C6.92933 10.7026 7.00863 10.7026 7.05754 10.6547C7.05754 10.6547 7.05754 10.6547 7.05754 10.6547L11.6457 6.16232C11.8413 5.97076 12.1586 5.97075 12.3542 6.1623C12.3542 6.1623 12.3542 6.1623 12.3542 6.16231L16.9426 10.6547C16.9915 10.7026 17.0708 10.7026 17.1197 10.6547L21.708 6.1624C21.9037 5.97084 22.2209 5.97084 22.4165 6.1624Z" fill="#3B99FC"/>
</svg>
