<svg width="20" height="20" viewBox="0 0 20 20" fill="none" xmlns="http://www.w3.org/2000/svg">
<path d="M4.7998 0C4.3623 0 3.9998 0.3625 3.9998 0.8V1.6H1.5998C1.13574 1.6 0.799805 1.93594 0.799805 2.4V5.2H19.1998V2.4C19.1998 1.93594 18.8639 1.6 18.3998 1.6H15.9998V0.8C15.9998 0.3625 15.6373 0 15.1998 0H14.3998C13.9623 0 13.5998 0.3625 13.5998 0.8V1.6H6.3998V0.8C6.3998 0.3625 6.0373 0 5.5998 0H4.7998ZM4.7998 0.8H5.5998V3.2H4.7998V0.8ZM14.3998 0.8H15.1998V3.2H14.3998V0.8ZM0.799805 6V18.4C0.799805 18.8641 1.13574 19.2 1.5998 19.2H18.3998C18.8639 19.2 19.1998 18.8641 19.1998 18.4V6H0.799805ZM4.7998 8.4H6.7998V10.4H4.7998V8.4ZM7.5998 8.4H9.5998V10.4H7.5998V8.4ZM10.3998 8.4H12.3998V10.4H10.3998V8.4ZM13.1998 8.4H15.1998V10.4H13.1998V8.4ZM4.7998 11.2H6.7998V13.2H4.7998V11.2ZM7.5998 11.2H9.5998V13.2H7.5998V11.2ZM10.3998 11.2H12.3998V13.2H10.3998V11.2ZM13.1998 11.2H15.1998V13.2H13.1998V11.2ZM4.7998 14H6.7998V16H4.7998V14ZM7.5998 14H9.5998V16H7.5998V14ZM10.3998 14H12.3998V16H10.3998V14ZM13.1998 14H15.1998V16H13.1998V14Z" fill="#FF507D"/>
</svg>
