<svg width="20" height="14" viewBox="0 0 20 14" fill="none" xmlns="http://www.w3.org/2000/svg">
<path d="M8.23033 1.15733C8.08499 0.753327 7.93832 0.345994 7.93566 0.34066C7.86566 0.183994 7.70366 0.0853268 7.53299 0.10266C7.42499 0.111327 4.86966 0.331327 3.23233 1.64799C2.37633 2.43866 0.666992 7.06133 0.666992 11.058C0.666992 11.1287 0.684992 11.1973 0.720326 11.2587C1.90099 13.332 5.11966 13.8747 5.85299 13.898C5.85766 13.8987 5.86166 13.8987 5.86566 13.8987C5.99499 13.8987 6.11633 13.8367 6.19366 13.732L6.98699 12.6573C5.67632 12.458 5.43966 12.198 5.38433 12.1573C5.08833 11.9393 4.86966 11.634 5.13499 11.2487C5.33899 10.9493 5.76699 10.8507 6.09499 11.0193C6.43099 11.176 7.33033 11.68 10.0003 11.6667C12.6517 11.6587 13.8157 11.1033 13.8323 11.0913C14.2777 10.8907 14.625 10.9733 14.8417 11.2707C15.0997 11.6753 14.9157 11.9493 14.621 12.1667C14.5657 12.2073 14.4317 12.3213 13.0237 12.6547L13.807 13.7313C13.8837 13.8367 14.0057 13.898 14.135 13.898C14.1397 13.898 14.1437 13.898 14.1477 13.8973C14.8817 13.874 18.1003 13.3313 19.2803 11.258C19.3157 11.1967 19.3337 11.128 19.3337 11.0573C19.3337 7.06133 17.6243 2.43866 16.747 1.63066C15.131 0.331994 12.5757 0.111994 12.4677 0.10266C12.297 0.0879935 12.135 0.18466 12.065 0.34066C12.0623 0.345994 11.9197 0.759993 11.7817 1.15933C11.7817 1.15933 10.6943 0.999994 10.0003 0.999994C9.30632 0.999994 8.23033 1.15733 8.23033 1.15733ZM7.33366 9.66666C6.59699 9.66666 6.00033 8.77799 6.00033 7.68066C6.00033 6.58333 6.59699 5.69466 7.33366 5.69466C8.07299 5.58466 8.65099 6.58333 8.66699 7.68066C8.66699 8.77799 8.07032 9.66666 7.33366 9.66666ZM12.667 9.66666C11.9303 9.66666 11.3337 8.77199 11.3337 7.66866C11.3337 6.56533 11.9303 5.67066 12.667 5.67066C13.4037 5.67066 14.0003 6.56533 14.0003 7.66866C14.0003 8.77199 13.4037 9.66666 12.667 9.66666Z" fill="#FF507D"/>
</svg>
