<svg width="20" height="12" viewBox="0 0 20 12" fill="none" xmlns="http://www.w3.org/2000/svg">
<path d="M5.66667 0.666672C4.92251 0.666672 4.18564 0.813245 3.49813 1.09802C2.81062 1.3828 2.18593 1.8002 1.65973 2.3264C1.13353 2.8526 0.716126 3.47729 0.431349 4.1648C0.146573 4.85231 0 5.58918 0 6.33334C0 7.0775 0.146573 7.81437 0.431349 8.50188C0.716126 9.18939 1.13353 9.81408 1.65973 10.3403C2.18593 10.8665 2.81062 11.2839 3.49813 11.5687C4.18564 11.8534 4.92251 12 5.66667 12C6.41082 12 7.1477 11.8534 7.83521 11.5687C8.52272 11.2839 9.14741 10.8665 9.6736 10.3403C10.1998 9.81408 10.6172 9.18939 10.902 8.50188C11.1868 7.81437 11.3333 7.0775 11.3333 6.33334C11.3333 5.58918 11.1868 4.85231 10.902 4.1648C10.6172 3.47729 10.1998 2.8526 9.6736 2.3264C9.14741 1.8002 8.52272 1.3828 7.83521 1.09802C7.1477 0.813245 6.41082 0.666672 5.66667 0.666672ZM14.6667 1.33334C14.3165 1.33334 13.9697 1.46267 13.6462 1.71394C13.3226 1.96521 13.0287 2.33351 12.781 2.7978C12.5334 3.2621 12.337 3.81329 12.203 4.41992C12.069 5.02655 12 5.67673 12 6.33334C12 6.98995 12.069 7.64013 12.203 8.24675C12.337 8.85338 12.5334 9.40458 12.781 9.86887C13.0287 10.3332 13.3226 10.7015 13.6462 10.9527C13.9697 11.204 14.3165 11.3333 14.6667 11.3333C15.0169 11.3333 15.3636 11.204 15.6872 10.9527C16.0107 10.7015 16.3047 10.3332 16.5523 9.86887C16.7999 9.40458 16.9963 8.85338 17.1303 8.24675C17.2644 7.64013 17.3333 6.98995 17.3333 6.33334C17.3333 5.67673 17.2644 5.02655 17.1303 4.41992C16.9963 3.81329 16.7999 3.2621 16.5523 2.7978C16.3047 2.33351 16.0107 1.96521 15.6872 1.71394C15.3636 1.46267 15.0169 1.33334 14.6667 1.33334ZM19 2.00001C18.7348 2.00001 18.4804 2.45655 18.2929 3.26921C18.1054 4.08187 18 5.18407 18 6.33334C18 7.48261 18.1054 8.58481 18.2929 9.39747C18.4804 10.2101 18.7348 10.6667 19 10.6667C19.2652 10.6667 19.5196 10.2101 19.7071 9.39747C19.8946 8.58481 20 7.48261 20 6.33334C20 5.18407 19.8946 4.08187 19.7071 3.26921C19.5196 2.45655 19.2652 2.00001 19 2.00001Z" fill="#FF507D"/>
</svg>
