<svg width="17" height="16" viewBox="0 0 17 16" fill="none" xmlns="http://www.w3.org/2000/svg">
<path d="M14.7695 0.656245C14.5528 0.665805 14.3509 0.728927 14.1732 0.800776C14.0067 0.867752 13.3705 1.1406 12.3685 1.57031C11.3656 2.00039 10.0377 2.57051 8.62109 3.17968C5.78798 4.39802 2.60281 5.76944 0.971354 6.47135C0.910006 6.49773 0.695947 6.56612 0.46875 6.74348C0.241553 6.92085 0 7.28838 0 7.69791C0 8.02814 0.157378 8.35621 0.355469 8.55208C0.553559 8.74795 0.763165 8.84471 0.942708 8.91796C1.59415 9.18377 3.61456 10.0106 3.99609 10.1667C4.13036 10.578 4.86166 12.815 5.03125 13.3633C5.14304 13.7251 5.24946 13.9517 5.38802 14.1315C5.4573 14.2214 5.53783 14.3002 5.63542 14.362C5.67442 14.3867 5.71719 14.4057 5.76042 14.4232L5.76302 14.4245C5.77298 14.4285 5.78157 14.4353 5.79167 14.4388C5.81072 14.4455 5.82347 14.4463 5.84896 14.4518C5.95051 14.4846 6.05303 14.5052 6.14453 14.5052C6.53464 14.5052 6.77344 14.2904 6.77344 14.2904L6.78776 14.2799L8.79427 12.5443L11.2279 14.8463C11.2621 14.8948 11.5817 15.3333 12.2865 15.3333C12.7049 15.3333 13.0369 15.1233 13.25 14.8997C13.4631 14.6761 13.5959 14.4412 13.6523 14.1458V14.1445C13.7051 13.8654 15.9479 2.35156 15.9479 2.35156L15.944 2.36718C16.0097 2.06751 16.0269 1.78842 15.9544 1.51302C15.882 1.23761 15.6911 0.973922 15.4544 0.832026C15.2178 0.690162 14.9862 0.646684 14.7695 0.656245ZM14.6445 2.04947C14.6413 2.06893 14.6469 2.05915 14.6419 2.08203L14.6406 2.08984L14.6393 2.09765C14.6393 2.09765 12.4243 13.4642 12.3424 13.8971C12.3484 13.8644 12.321 13.9294 12.293 13.9687C12.2533 13.9414 12.1719 13.9062 12.1719 13.9062L12.1589 13.8919L8.83463 10.7474L6.48437 12.7786L7.18359 9.97916C7.18359 9.97916 11.5544 5.45473 11.8177 5.1914C12.0297 4.98073 12.0742 4.9073 12.0742 4.83463C12.0742 4.7373 12.0235 4.66666 11.9102 4.66666C11.8082 4.66666 11.671 4.76583 11.5977 4.81249C10.6423 5.42152 6.44788 7.86609 4.56771 8.95963C4.26892 8.83735 2.19311 7.98764 1.48958 7.70052C1.49491 7.69818 1.49316 7.69901 1.4987 7.69661C3.13058 6.99452 6.31442 5.62311 9.14713 4.40494C10.5635 3.79586 11.8924 3.2253 12.8945 2.79557C13.8812 2.37245 14.5667 2.08125 14.6445 2.04947Z" fill="#FF507D"/>
</svg>
