<svg width="16" height="16" viewBox="0 0 16 16" fill="none" xmlns="http://www.w3.org/2000/svg">
<path d="M14.0003 0.666672H2.00033C1.26366 0.666672 0.666992 1.26334 0.666992 2.00001V14C0.666992 14.7367 1.26366 15.3333 2.00033 15.3333H14.0003C14.737 15.3333 15.3337 14.7367 15.3337 14V2.00001C15.3337 1.26334 14.7363 0.666672 14.0003 0.666672ZM13.1263 6.98267C13.0397 6.99067 12.9523 6.99601 12.8643 6.99601C11.8677 6.99601 10.9917 6.484 10.4817 5.70867C10.4817 7.74134 10.4817 10.0547 10.4817 10.0933C10.4817 11.8833 9.03033 13.334 7.24099 13.334C5.45166 13.3333 4.00033 11.882 4.00033 10.0927C4.00033 8.30267 5.45166 6.85201 7.24099 6.85201C7.30899 6.85201 7.37499 6.85801 7.44099 6.86201V8.45934C7.37433 8.45134 7.30966 8.43934 7.24099 8.43934C6.32766 8.43934 5.58699 9.18001 5.58699 10.0933C5.58699 11.0067 6.32699 11.7473 7.24099 11.7473C8.15499 11.7473 8.96166 11.0273 8.96166 10.114C8.96166 10.0773 8.97766 2.66734 8.97766 2.66734H10.5037C10.647 4.03201 11.749 5.10934 13.1263 5.20801V6.98267Z" fill="#FF507D"/>
</svg>
