<svg width="18" height="16" viewBox="0 0 18 16" fill="none" xmlns="http://www.w3.org/2000/svg">
<path d="M17.667 2.62467C17.029 2.908 16.3437 3.09867 15.6243 3.18467C16.359 2.74467 16.9223 2.048 17.1877 1.21734C16.501 1.62467 15.7397 1.92067 14.929 2.08067C14.2803 1.38934 13.3563 0.957336 12.3337 0.957336C10.3697 0.957336 8.77768 2.55 8.77768 4.51334C8.77768 4.792 8.80968 5.064 8.86967 5.32334C5.91434 5.17534 3.29434 3.75934 1.53967 1.60734C1.23434 2.13267 1.05901 2.74334 1.05901 3.396C1.05901 4.62934 1.68634 5.718 2.64034 6.35534C2.05767 6.33667 1.50901 6.17667 1.02967 5.91067C1.02967 5.926 1.02967 5.94 1.02967 5.95534C1.02967 7.67867 2.25501 9.116 3.88234 9.442C3.58434 9.52334 3.26967 9.56667 2.94501 9.56667C2.71634 9.56667 2.49301 9.544 2.27634 9.50334C2.72901 10.916 4.04234 11.9447 5.59834 11.9733C4.38167 12.9273 2.84834 13.496 1.18167 13.496C0.895008 13.496 0.611674 13.4793 0.333008 13.446C1.90701 14.4547 3.77567 15.0433 5.78434 15.0433C12.3257 15.0433 15.9017 9.62467 15.9017 4.92534C15.9017 4.77134 15.8983 4.618 15.8917 4.46534C16.587 3.96334 17.1903 3.33734 17.667 2.62467Z" fill="#FF507D"/>
</svg>
